<svg width="80" height="80" viewBox="0 0 80 80" fill="none" xmlns="http://www.w3.org/2000/svg">
<path d="M0 40C0 17.9086 17.9086 0 40 0V0C62.0914 0 80 17.9086 80 40V40C80 62.0914 62.0914 80 40 80V80C17.9086 80 0 62.0914 0 40V40Z" fill="#423FFF" fill-opacity="0.5"/>
<path d="M57.3598 43.5108C56.5915 53.3698 49.5851 61.6128 39.9999 63.9715C30.34 61.5977 23.1807 53.4356 22.1001 43.5303L21.0612 34.0066L27.0182 30.1771L31.4855 32.8575L32.155 33.2592L32.7071 32.7071L35.7071 29.7071L35.7257 29.6885L35.7433 29.669L39.6648 25.3117L46.4453 29.8321L47.043 30.2305L47.6114 29.7913L57.9151 21.8293L58.9672 22.8815L57.3598 43.5108Z" fill="url(#paint0_linear_430_2443)" stroke="#FFA62B" stroke-width="2"/>
<path d="M39.1528 20.3636L30.6667 28L26.0972 24.8182L15 32.4545L16.9583 35L26.0972 28.6364L30.6667 31.8182L39.1528 24.1818L46.3333 28.6364L56.7778 20.3636L58.7361 22.9091L62 14L52.2083 15.9091L54.8194 18.4545L46.3333 24.8182L39.1528 20.3636Z" stroke="black" stroke-width="2"/>
<path d="M22.3436 44.8785C19.898 44.0461 16.1964 41.305 20.9544 37.0001" stroke="#FFA62B" stroke-width="1.5"/>
<path d="M57.0001 44.8785C59.4457 44.0461 63.1474 41.305 58.3893 37.0001" stroke="#FFA62B" stroke-width="1.5"/>
<path d="M32 40C30.8954 40 30 42.1046 30 41C30 39.8954 30.8954 39 32 39C33.1046 39 34 39.8954 34 41C34 42.1046 33.1046 40 32 40Z" fill="black"/>
<path d="M39.5 55.2763C41.9853 55.2763 44 51.6486 44 53.5525C44 55.4565 41.9853 57 39.5 57C37.0147 57 35 55.4565 35 53.5525C35 51.6486 37.0147 55.2763 39.5 55.2763Z" stroke="black"/>
<path d="M47 40C45.8954 40 45 42.1046 45 41C45 39.8954 45.8954 39 47 39C48.1046 39 49 39.8954 49 41C49 42.1046 48.1046 40 47 40Z" fill="black"/>
<defs>
<linearGradient id="paint0_linear_430_2443" x1="40" y1="20.5" x2="40" y2="65" gradientUnits="userSpaceOnUse">
<stop stop-color="#FFDA00"/>
<stop offset="1" stop-color="#FFB000"/>
</linearGradient>
</defs>
</svg>
